# xmcd
#
# Track frame offsets:
#	150
#	14295
#	28877
#	45969
#	55757
#	69461
#	83657
#	96633
#	109378
#	125582
#	137164
#	150913
#	163033
#	175284
#	192022
#	206688
#	219803
#	230660
#	246462
#
# Disc length: 3459 seconds
#
# Revision: 0
# Processed by: cddbd v1.5.2PL0 Copyright (c) Steve Scherf et al.
# Submitted via: EasyCDDAExtractor 16.0.8.2
#
DISCID=080d8113
DTITLE=Άγνωστος - Αιγαίο 1 Αιγαιοπελαγίτικα
DYEAR=1900
DGENRE=Παραδοσιακή
TTITLE0=Λυγαριά [παραδ., διασκ. Γ. Κονιτόπουλος]
TTITLE1=Ο μάουκας [Γ.Κονιτόπουλος-Γ.Γιαννούλης]
TTITLE2=Τέλος πάντων δε μού λέτε [Γ. Κονιτόπουλος]
TTITLE3=Το λουλουδάκι του μπαξέ [Γ.Κονιτόπουλος, δ. Αν.Τσίχλας]
TTITLE4=Στο παραθύρι πρόβαλε [Γ. Κονιτόπουλος]
TTITLE5=Αρμενάκι [παραδ., δ. Γ. Κονιτόπουλος]
TTITLE6=Που αγαπιόμαστε αλλά [Γ. Κονιτόπουλος]
TTITLE7=Στην Πάρο και στην Νάξο [Γ. Κονιτόπουλος]
TTITLE8=Βασανάκι μου [Γ. Κονιτόπουλος]
TTITLE9=Αγαπάω το κοπέλι [Γ. Κονιτόπουλος]
TTITLE10=Ψαριανή (Ώπαλα)[Γ.Κονιτόπουλος-Δέσπ. Πολίτου]
TTITLE11=Η αγάπη μου στην Ικαριά[Γ.Κονιτόπουλος-Αικ.Κονιτοπούλου]
TTITLE12=Τσάρκα με το τρεχαντήρι [Γ. Κονιτόπουλος]
TTITLE13=Στον Απόλλωνα στην Νάξο [Γ. Κονιτόπουλος]
TTITLE14=Σ' αγαπώ να το θυμάσαι [Γ. Κονιτόπουλος]
TTITLE15=Πως ερωτεύτηκα θαρρώ [Γ. Κονιτόπουλος]
TTITLE16=Ήθελα νά 'μαι στο χωριό [Γ. Κονιτόπουλος]
TTITLE17=Ωραία πού 'ναι την αυγή [Γ. Κονιτόπουλος]
TTITLE18=Μιά θαλασσινή παρέα [Γ. Κονιτόπουλος]
EXTD=
EXTT0=
EXTT1=
EXTT2=
EXTT3=
EXTT4=
EXTT5=
EXTT6=
EXTT7=
EXTT8=
EXTT9=
EXTT10=
EXTT11=
EXTT12=
EXTT13=
EXTT14=
EXTT15=
EXTT16=
EXTT17=
EXTT18=
PLAYORDER=
